<?xml version="1.0" encoding="UTF-8"?>
<svg width="24" height="24" viewBox="0 0 24 24" fill="none" xmlns="http://www.w3.org/2000/svg">
  <path d="M12 9V12L13.5 13.5M17 6.17V3C17 2.46957 16.7893 1.96086 16.4142 1.58579C16.0391 1.21071 15.5304 1 15 1H9C8.46957 1 7.96086 1.21071 7.58579 1.58579C7.21071 1.96086 7 2.46957 7 3V6.17M17 6.17C18.7319 7.1652 19.9979 8.79052 20.5246 10.7118C21.0513 12.633 20.8068 14.6817 19.8455 16.4316C18.8842 18.1815 17.2805 19.4946 15.3711 20.0785C13.4616 20.6624 11.4103 20.4771 9.65836 19.5617C7.90641 18.6462 6.54845 17.0796 5.91247 15.1918C5.27649 13.304 5.4037 11.2522 6.30754 9.46192C7.21138 7.67167 8.81786 6.3294 10.7281 5.71585C12.6384 5.10229 14.7051 5.27097 16.4788 6.17M17 6.17L7 6.17M16 21H8C7.46957 21 6.96086 20.7893 6.58579 20.4142C6.21071 20.0391 6 19.5304 6 19V17.17L16 21ZM18 17.17V19C18 19.5304 17.7893 20.0391 17.4142 20.4142C17.0391 20.7893 16.5304 21 16 21L18 17.17Z" stroke="currentColor" stroke-width="2" stroke-linecap="round" stroke-linejoin="round"/>
</svg>
